<?xml version="1.0" encoding="iso-8859-1"?>
<!-- Uploaded to: SVG Repo, www.svgrepo.com, Generator: SVG Repo Mixer Tools -->
<svg version="1.1" id="Layer_1" xmlns="http://www.w3.org/2000/svg" xmlns:xlink="http://www.w3.org/1999/xlink" 
	 viewBox="0 0 511.981 511.981" xml:space="preserve">
<path style="fill:#FC6E51;" d="M21.327,394.637c-5.89,0-10.671-4.781-10.671-10.655V63.986c0-5.875,4.781-10.656,10.671-10.656
	h469.31c5.875,0,10.672,4.781,10.672,10.656v319.995c0,5.874-4.797,10.655-10.672,10.655H21.327z"/>
<path style="fill:#E6E9ED;" d="M490.636,42.66H21.327C9.546,42.66,0,52.205,0,63.986v319.995c0,11.78,9.546,21.342,21.327,21.342
	h469.31c11.781,0,21.344-9.562,21.344-21.342V63.986C511.98,52.206,502.418,42.66,490.636,42.66z M490.636,383.982H21.327V63.986
	h469.31v319.995H490.636z"/>
<polygon style="fill:#CCD1D9;" points="341.315,469.322 170.65,469.322 191.93,384.076 320.003,384.044 "/>
<rect x="15.937" y="341.331" style="fill:#E6E9ED;" width="480.09" height="61.03"/>
<path style="fill:#434A54;" d="M266.645,373.326c0,5.875-4.781,10.656-10.655,10.656c-5.906,0-10.672-4.781-10.672-10.656
	c0-5.905,4.766-10.687,10.672-10.687C261.864,362.639,266.645,367.421,266.645,373.326z"/>
<path style="fill:#E6E9ED;" d="M341.315,447.979H170.65c-5.891,0-10.656,4.781-10.656,10.655c0,5.906,4.765,10.688,10.656,10.688
	h170.666c5.891,0,10.672-4.781,10.672-10.688C351.987,452.76,347.206,447.979,341.315,447.979z"/>
<g>
	<path style="fill:#E9573F;" d="M278.177,277.329H53.326c-5.89,0-10.671-4.781-10.671-10.679c0-5.891,4.781-10.672,10.671-10.672
		h224.851c5.891,0,10.656,4.781,10.656,10.672C288.833,272.549,284.067,277.329,278.177,277.329z"/>
	<path style="fill:#E9573F;" d="M278.177,234.652H53.326c-5.89,0-10.671-4.781-10.671-10.672s4.781-10.655,10.671-10.655h224.851
		c5.891,0,10.656,4.765,10.656,10.655S284.067,234.652,278.177,234.652z"/>
	<path style="fill:#E9573F;" d="M278.177,191.982H53.326c-5.89,0-10.671-4.766-10.671-10.656s4.781-10.671,10.671-10.671h224.851
		c5.891,0,10.656,4.781,10.656,10.671C288.833,187.217,284.067,191.982,278.177,191.982z"/>
	<path style="fill:#E9573F;" d="M278.177,149.328H53.326c-5.89,0-10.671-4.781-10.671-10.672s4.781-10.672,10.671-10.672h224.851
		c5.891,0,10.656,4.781,10.656,10.672S284.067,149.328,278.177,149.328z"/>
</g>
<g>
	<path style="fill:#434A54;" d="M447.982,149.328H319.987c-5.906,0-10.671-4.781-10.671-10.672s4.765-10.672,10.671-10.672h127.995
		c5.891,0,10.656,4.781,10.656,10.672S453.873,149.328,447.982,149.328z"/>
	<path style="fill:#434A54;" d="M447.982,191.982H319.987c-5.906,0-10.671-4.766-10.671-10.656s4.765-10.671,10.671-10.671h127.995
		c5.891,0,10.656,4.781,10.656,10.671C458.638,187.217,453.873,191.982,447.982,191.982z"/>
	<path style="fill:#434A54;" d="M447.982,234.652H319.987c-5.906,0-10.671-4.781-10.671-10.672s4.765-10.655,10.671-10.655h127.995
		c5.891,0,10.656,4.765,10.656,10.655S453.873,234.652,447.982,234.652z"/>
	<path style="fill:#434A54;" d="M447.982,277.329H319.987c-5.906,0-10.671-4.781-10.671-10.679c0-5.891,4.765-10.672,10.671-10.672
		h127.995c5.891,0,10.656,4.781,10.656,10.672C458.638,272.549,453.873,277.329,447.982,277.329z"/>
</g>
<path style="fill:#FFCE54;" d="M267.005,278.486l-0.906-0.25c-13.233-3.562-17.702-6.96-23.592-9.21
	c-20.906-7.969-26.343-13.703-27.733-16.406c-0.047-0.094-0.078-0.203-0.125-0.297l-0.172-24.28l-49.561-0.562l-49.561,0.562
	l-0.172,24.28c-0.047,0.094-0.094,0.203-0.141,0.297c-1.391,2.703-6.828,8.438-27.718,16.406c-5.89,2.25-10.375,5.647-23.608,9.21
	l-0.906,0.25c-12.046,4-20.155,15.155-20.155,27.78v13.719h122.261h122.246v-13.719
	C287.161,293.641,279.052,282.486,267.005,278.486z"/>
<path style="fill:#EAC6BB;" d="M233.678,181.077c0,44.685-42.592,85.809-68.763,85.809s-68.779-41.124-68.779-85.809
	c0-44.687,30.796-74.17,68.779-74.17S233.678,136.39,233.678,181.077z"/>
<path style="fill:#965353;" d="M200.664,106.907c0,0-1.594-8.031,12.64-16.577c6.031-3.625-90.372-20.812-114.558,40.107
	c-9.093,22.875-2.375,56.561-2.375,56.561l20.953-37.561c0,0,22.843,5.327,47.592,5.327c24.733,0,48.404-5.327,48.404-5.327
	l20.358,31.733c0,0,7.828-30.468-0.938-50.671C223.975,110.298,200.664,106.907,200.664,106.907z"/>
</svg>